<?xml version="1.0" encoding="UTF-8"?>
<svg viewBox="0 0 327.12 236" xmlns="http://www.w3.org/2000/svg" xmlns:xlink="http://www.w3.org/1999/xlink">
 <defs>
  <linearGradient id="cr" x1="-23.802" x2="-23.118" y1=".33496" y2=".33988" xlink:href="#a"/>
  <linearGradient id="dq" x1="-23.71" x2="-23.026" y1=".47818" y2=".48214" xlink:href="#a"/>
  <linearGradient id="ds" x1="1.1254" x2="1.1254" y1="2.0292" y2=".7956">
   <stop stop-color="#366b04" offset="0"/>
   <stop stop-color="#366b04" stop-opacity="0" offset="1"/>
  </linearGradient>
  <linearGradient id="dp" x1="-11.575" x2="-11.949" y1=".36756" y2=".41344" xlink:href="#a"/>
  <linearGradient id="cq" x1="-26.414" x2="-27.022" y1=".47041" y2=".47719" xlink:href="#bl"/>
  <linearGradient id="dn" x1="-23.096" x2="-22.307" y1=".43261" y2=".43753" xlink:href="#b"/>
  <linearGradient id="do" x1="-21.173" x2="-20.644" y1=".24472" y2=".25767" xlink:href="#a"/>
  <linearGradient id="cs" x1="2.3501" x2="2.3501" y1="1.1504" y2="-.030629" xlink:href="#ci"/>
  <linearGradient id="bq" x1="12.575" x2="12.949" y1=".36756" y2=".41344" xlink:href="#a"/>
  <linearGradient id="ct" x1="28.43" x2="27.745" y1=".23412" y2=".24726" xlink:href="#a"/>
  <linearGradient id="bm" x1="20.566" x2="19.892" y1=".38724" y2=".39256" xlink:href="#b"/>
  <linearGradient id="bp" x1="16.887" x2="15.886" y1=".8188" y2=".23047" xlink:href="#b"/>
  <linearGradient id="dr" x1="24.096" x2="23.306" y1=".49989" y2=".50423" xlink:href="#b"/>
  <linearGradient id="bn" x1="25.612" x2="27.265" y1=".75513" y2=".12086" xlink:href="#b"/>
  <linearGradient id="bo" x1="27.414" x2="28.022" y1=".47041" y2=".47719" xlink:href="#bl"/>
  <linearGradient id="cp" x1="-24.612" x2="-26.265" y1=".75513" y2=".12086" xlink:href="#b"/>
  <linearGradient id="cn" x1="-19.566" x2="-18.892" y1=".38724" y2=".39256" xlink:href="#b"/>
  <linearGradient id="by" x1="-16.998" x2="-17.589" y1=".45733" y2=".46204" xlink:href="#a"/>
  <linearGradient id="dh" x1="-23.71" x2="-24.395" y1=".47818" y2=".48214" xlink:href="#a"/>
  <linearGradient id="cl" x1="-12.575" x2="-12.202" y1=".36756" y2=".41344" xlink:href="#a"/>
  <linearGradient id="cm" x1="-23.618" x2="-24.302" y1=".33496" y2=".33988" xlink:href="#a"/>
  <linearGradient id="di" x1="-23.096" x2="-22.307" y1=".49989" y2=".50423" xlink:href="#b"/>
  <linearGradient id="co" x1="-17.289" x2="-16.699" y1=".45733" y2=".46204" xlink:href="#a"/>
  <linearGradient id="dm" x1="-23.71" x2="-24.394" y1=".4663" y2=".47025" xlink:href="#a"/>
  <linearGradient id="dj" x1="-15.887" x2="-14.886" y1=".8188" y2=".23047" xlink:href="#b"/>
  <linearGradient id="dl" x1="-11.575" x2="-11.948" y1=".36756" y2=".41344" xlink:href="#a"/>
  <linearGradient id="dk" x1="-27.43" x2="-26.745" y1=".23412" y2=".24726" xlink:href="#a"/>
  <linearGradient id="cu" x1="24.71" x2="25.394" y1=".4663" y2=".47026" xlink:href="#a"/>
  <linearGradient id="bu" x1="17.998" x2="18.589" y1=".45733" y2=".46204" xlink:href="#a"/>
  <linearGradient id="br" x1="24.802" x2="24.118" y1=".33496" y2=".33988" xlink:href="#a"/>
  <linearGradient id="bt" x1="24.618" x2="25.302" y1=".33496" y2=".33988" xlink:href="#a"/>
  <linearGradient id="bs" x1="13.575" x2="13.202" y1=".36756" y2=".41344" xlink:href="#a"/>
  <linearGradient id="cd" x1="28.587" x2="29.272" y1=".23412" y2=".24726" xlink:href="#a"/>
  <linearGradient id="ce" x1="24.71" x2="24.026" y1=".4663" y2=".47026" xlink:href="#a"/>
  <linearGradient id="bv" x1="20.667" x2="21.341" y1=".38724" y2=".39256" xlink:href="#b"/>
  <linearGradient id="ch" x1="24.71" x2="25.394" y1=".47818" y2=".48214" xlink:href="#a"/>
  <linearGradient id="bw" x1="27.918" x2="26.265" y1=".75513" y2=".12086" xlink:href="#b"/>
  <linearGradient id="bx" x1="26.756" x2="26.149" y1=".47041" y2=".47719" xlink:href="#bl"/>
  <linearGradient id="cf" x1="24.043" x2="24.832" y1=".43261" y2=".43753" xlink:href="#b"/>
  <linearGradient id="cg" x1="22.066" x2="22.595" y1=".24472" y2=".25768" xlink:href="#a"/>
  <linearGradient id="cc" x1="15.886" x2="16.887" y1=".8188" y2=".23047" xlink:href="#b"/>
  <linearGradient id="cv" x1="24.096" x2="23.307" y1=".43261" y2=".43753" xlink:href="#b"/>
  <linearGradient id="c" x1="18.289" x2="17.699" y1=".45733" y2=".46204" xlink:href="#a"/>
  <linearGradient id="cb" x1="24.043" x2="24.832" y1=".49989" y2=".50423" xlink:href="#b"/>
  <linearGradient id="bz" x1="22.173" x2="21.644" y1=".24472" y2=".25768" xlink:href="#a"/>
  <linearGradient id="ca" x1="24.71" x2="24.026" y1=".47818" y2=".48214" xlink:href="#a"/>
  <linearGradient id="dg" x1="-21.066" x2="-21.595" y1=".24472" y2=".25767" xlink:href="#a"/>
  <linearGradient id="df" x1="-14.887" x2="-15.887" y1=".8188" y2=".23047" xlink:href="#b"/>
  <linearGradient id="cw" x1="24.096" x2="23.307" y1=".49989" y2=".50423" xlink:href="#b"/>
  <linearGradient id="b">
   <stop stop-color="#336404" offset="0"/>
   <stop stop-color="#4e9a06" offset="1"/>
  </linearGradient>
  <linearGradient id="bl">
   <stop stop-color="#4e9a06" offset="0"/>
   <stop stop-color="#336404" offset="1"/>
  </linearGradient>
  <linearGradient id="ci">
   <stop stop-color="#336404" offset="0"/>
   <stop stop-color="#336404" stop-opacity="0" offset="1"/>
  </linearGradient>
  <linearGradient id="a">
   <stop stop-color="#73d216" offset="0"/>
   <stop stop-color="#4e9a06" offset="1"/>
  </linearGradient>
  <linearGradient id="db" x1="-27.587" x2="-28.272" y1=".23412" y2=".24726" xlink:href="#a"/>
  <linearGradient id="da" x1="-14.886" x2="-15.887" y1=".8188" y2=".23047" xlink:href="#b"/>
  <linearGradient id="cz" x1="-23.043" x2="-23.832" y1=".49989" y2=".50423" xlink:href="#b"/>
  <linearGradient id="cj" x1="-26.918" x2="-25.265" y1=".75513" y2=".12086" xlink:href="#b"/>
  <linearGradient id="ck" x1="-25.756" x2="-25.149" y1=".47041" y2=".47719" xlink:href="#bl"/>
  <linearGradient id="dc" x1="-23.71" x2="-23.026" y1=".4663" y2=".47025" xlink:href="#a"/>
  <linearGradient id="de" x1="-23.043" x2="-23.832" y1=".43261" y2=".43753" xlink:href="#b"/>
  <linearGradient id="dd" x1="-19.667" x2="-20.341" y1=".38724" y2=".39256" xlink:href="#b"/>
  <linearGradient id="cy" x1="-19.667" x2="-20.34" y1=".38724" y2=".39256" xlink:href="#b"/>
  <linearGradient id="cx" x1="-1.3892" x2="-1.3892" y1="1.1504" y2="-.030632" xlink:href="#ci"/>
 </defs>
 <g stroke-linecap="round" stroke-linejoin="bevel" stroke-width="2">
  <path d="m49.756 148.71c-1.6767 2.7475-6.8823 21.476-8.7361 21.156-1.8712 0.095093-2.0374-4.2367-2.2583-8.25-0.18753-3.406-0.40979-6.5866-1.7829-6.5938-1.7032-0.008972-8.6211 11.135-11.678 10.375-0.90654-0.22546-0.08139-6.6754-0.416-8.5625l-3.7143 18.531-6.7452-16.156-6.0321 7.0938-4.368-4.125v70.375h106.44v-65.344l-4.368 3.8438-6.0321-6.5938-6.7452 15-3.7143-17.219c-0.3346 1.7521 0.49054 7.7594-0.416 7.9688-3.0567 0.70575-9.9747-9.6333-11.678-9.625-1.3731 0.006714-1.5954 2.9315-1.7829 6.0938-0.22093 3.726-0.38705 7.7758-2.2583 7.6875-1.8537 0.29651-7.0594-17.105-8.7361-19.656-1.6201 2.1484 1.5043 7.1016-1.0103 9.25l-2.3474-2.0938-4.6355-8.875-5.9726 5.6875c-2.5146-2.3141 0.6098-7.6547-1.0103-9.9688z" fill="url(#cs)"/>
  <path d="m16.582 168.4s-5.8084 26.747-6.0856 40.584c-0.15171 7.5733-3.8068 24.898-3.8068 24.898l6.3447 0.2203s2.3928-29.158 2.07-43.046c-0.20815-8.9559 1.4777-22.656 1.4777-22.656z" fill="url(#bm)"/>
  <path d="m24.672 143.62s3.777 33.596 3.5355 53.801c-0.13222 11.059-3.318 36.356-3.318 36.356l5.5301 0.3217s2.0856-42.577 1.8042-62.856c-0.18143-13.078-7.5517-27.622-7.5517-27.622z" fill="url(#bn)"/>
  <path d="m22.112 153.6s5.6315 35.737 3.5866 55.382c-0.78424 7.5341-3.8068 24.898-3.8068 24.898l6.3447 0.2203s2.3928-29.158 2.07-43.046c-0.20816-8.9559-8.1945-37.455-8.1945-37.455z" fill="url(#cw)"/>
  <path d="m12.534 123.22l-3.6291 77.875 0.5193 32.99-4.3755 0.0124 3.0524-79.881 4.433-30.996z" fill="url(#bo)"/>
  <path d="m18.461 156s-8.7268 32.557-8.4852 48.736c0.13222 8.8549 3.318 29.111 3.318 29.111l-5.5301 0.2576s-2.0856-34.092-1.8042-50.33c0.18143-10.472 12.502-27.774 12.502-27.774z" fill="url(#bp)"/>
  <path d="m19.663 133.31l-3.5682 0.3089 2.3414 59.765-3.2143 40.357 5.3572 0.3571 1.7478-69.774-4.9943-28.186 2.3305-2.8284z" fill="url(#ct)"/>
  <path d="m35.489 152.21s-12.48 36.345-12.268 52.524c0.11639 8.8549 2.9208 29.111 2.9208 29.111l-4.8679 0.2576s-1.8358-34.092-1.5882-50.33c0.15971-10.472 15.803-31.563 15.803-31.563z" fill="url(#bq)"/>
  <path d="m7.932 90.886l-3.5714 102.5 3.2143 40.357-5.3571 0.3571-2.5054-98.058 8.2197-45.156z" fill="url(#cu)"/>
  <path d="m28.249 119.17l4.329 74.216-3.2143 40.357 5.3572 0.3571 1.7478-69.774-8.2197-45.156z" fill="url(#br)"/>
  <path d="m8.0966 159.91s6.9195 35.232 6.6423 49.069c-0.15171 7.5733-3.8068 24.898-3.8068 24.898l6.3447 0.2203s2.3928-29.158 2.07-43.046c-0.20814-8.9559-11.25-31.142-11.25-31.142z" fill="url(#c)"/>
  <path d="m17.642 159.91s6.9195 35.232 6.6423 49.069c-0.15171 7.5733-3.8068 24.898-3.8068 24.898l6.3447 0.2203s2.3928-29.158 2.07-43.046c-0.20816-8.9559-11.25-31.142-11.25-31.142z" fill="url(#c)"/>
  <path d="m51.389 168.4s-5.8085 26.747-6.0856 40.584c-0.1517 7.5733-3.8068 24.898-3.8068 24.898l6.3447 0.2203s2.3928-29.158 2.07-43.046c-0.20815-8.9559 1.4777-22.656 1.4777-22.656z" fill="url(#bm)"/>
  <path d="m55.004 143.62s3.777 33.596 3.5355 53.801c-0.13222 11.059-3.318 36.356-3.318 36.356l5.5301 0.3217s2.0856-42.577 1.8042-62.856c-0.18143-13.078-7.5517-27.622-7.5517-27.622z" fill="url(#bn)"/>
  <path d="m46.952 163.15s5.4547 26.191 3.4098 45.836c-0.78424 7.5341-3.8068 24.898-3.8068 24.898l6.3447 0.2203s2.3928-29.158 2.07-43.046c-0.20814-8.9559-8.0177-27.909-8.0177-27.909z" fill="url(#cv)"/>
  <path d="m38.047 123.22l-3.6291 77.875 0.5193 32.99-4.3755 0.0124 3.0524-79.881 4.433-30.996z" fill="url(#bo)"/>
  <path d="m46.924 156s-8.7268 32.557-8.4852 48.736c0.13222 8.8549 3.318 29.111 3.318 29.111l-5.5301 0.2576s-2.0856-34.092-1.8042-50.33c0.18143-10.472 12.502-27.774 12.502-27.774z" fill="url(#bp)"/>
  <path d="m53.28 133.49l2.9725 0.1321 2.3414 59.765-3.2143 40.357 5.3571 0.3571 1.7478-69.774-5.1711-32.428-4.0335 1.591z" fill="url(#bz)"/>
  <path d="m62.44 152.21s-12.48 36.345-12.268 52.524c0.11639 8.8549 2.9208 29.111 2.9208 29.111l-4.8679 0.2576s-1.8358-34.092-1.5882-50.33c0.1597-10.472 15.803-31.563 15.803-31.563z" fill="url(#bq)"/>
  <path d="m36.036 103.26l3.5714 93.644-3.2143 36.87 5.3572 0.3263 2.5054-89.585-8.2197-41.255z" fill="url(#ca)"/>
  <path d="m43.865 119.17l4.329 74.216-3.2143 40.357 5.3572 0.3571 1.7478-69.774-8.2197-45.156z" fill="url(#br)"/>
  <path d="m49.047 159.91s6.9195 35.232 6.6423 49.069c-0.1517 7.5733-3.8068 24.898-3.8068 24.898l6.3447 0.2203s2.3928-29.158 2.07-43.046c-0.20814-8.9559-11.25-31.142-11.25-31.142z" fill="url(#c)"/>
  <path d="m51.992 159.91s6.9195 35.232 6.6423 49.069c-0.1517 7.5733-3.8068 24.898-3.8068 24.898l6.3447 0.2203s2.3928-29.158 2.07-43.046c-0.20815-8.9559-11.25-31.142-11.25-31.142z" fill="#4d9805"/>
  <path d="m75.403 168.4s5.8084 26.747 6.0856 40.584c0.1517 7.5733 3.8068 24.898 3.8068 24.898l-6.3447 0.2203s-2.3928-29.158-2.07-43.046c0.20814-8.9559-1.4777-22.656-1.4777-22.656z" fill="url(#bv)"/>
  <path d="m101.31 143.62s-3.7771 33.596-3.5355 53.801c0.13222 11.059 3.318 36.356 3.318 36.356l-5.5301 0.3217s-2.0856-42.577-1.8042-62.856c0.18144-13.078 7.5517-27.622 7.5517-27.622z" fill="url(#bw)"/>
  <path d="m69.872 153.6s-5.6315 35.737-3.5866 55.382c0.78424 7.5341 3.8068 24.898 3.8068 24.898l-6.3447 0.2203s-2.3928-29.158-2.07-43.046c0.20814-8.9559 8.1945-37.455 8.1945-37.455z" fill="url(#cb)"/>
  <path d="m79.45 123.22l3.6291 77.875-0.5193 32.99 4.3756 0.0124-3.0524-79.881-4.433-30.996z" fill="url(#bx)"/>
  <path d="m73.524 156s8.7268 32.557 8.4852 48.736c-0.13222 8.8549-3.318 29.111-3.318 29.111l5.5301 0.2576s2.0856-34.092 1.8042-50.33c-0.18143-10.472-12.502-27.774-12.502-27.774z" fill="url(#cc)"/>
  <path d="m72.322 133.31l3.5682 0.3089-2.3414 59.765 3.2143 40.357-5.3571 0.3571-1.7478-69.774 4.9943-28.186-2.3304-2.8284z" fill="url(#cd)"/>
  <path d="m89.996 152.21s12.48 36.345 12.268 52.524c-0.1164 8.8549-2.9208 29.111-2.9208 29.111l4.8679 0.2576s1.8358-34.092 1.5882-50.33c-0.1597-10.472-15.803-31.563-15.803-31.563z" fill="url(#bs)"/>
  <path d="m69.552 90.886l3.5714 102.5-3.2143 40.357 5.3572 0.3571 2.5054-98.058-8.2197-45.156z" fill="url(#ce)"/>
  <path d="m112.24 119.17l-4.329 74.216 3.2143 40.357-5.3572 0.3571-1.7478-69.774 8.2197-45.156z" fill="url(#bt)"/>
  <path d="m83.888 159.91s-6.9195 35.232-6.6423 49.069c0.15171 7.5733 3.8068 24.898 3.8068 24.898l-6.3447 0.2203s-2.3928-29.158-2.07-43.046c0.20814-8.9559 11.25-31.142 11.25-31.142z" fill="url(#bu)"/>
  <path d="m74.342 159.91s-6.9195 35.232-6.6423 49.069c0.1517 7.5733 3.8068 24.898 3.8068 24.898l-6.3447 0.2203s-2.3928-29.158-2.07-43.046c0.20814-8.9559 11.25-31.142 11.25-31.142z" fill="url(#bu)"/>
  <path d="m89.096 168.4s5.8085 26.747 6.0856 40.584c0.15171 7.5733 3.8068 24.898 3.8068 24.898l-6.3447 0.2203s-2.3928-29.158-2.07-43.046c0.20814-8.9559-1.4778-22.656-1.4778-22.656z" fill="url(#bv)"/>
  <path d="m85.48 143.62s-3.7771 33.596-3.5355 53.801c0.13221 11.059 3.318 36.356 3.318 36.356l-5.5301 0.3217s-2.0856-42.577-1.8042-62.856c0.18143-13.078 7.5517-27.622 7.5517-27.622z" fill="url(#bw)"/>
  <path d="m93.533 163.15s-5.4547 26.191-3.4098 45.836c0.78424 7.5341 3.8068 24.898 3.8068 24.898l-6.3447 0.2203s-2.3928-29.158-2.07-43.046c0.20815-8.9559 8.0177-27.909 8.0177-27.909z" fill="url(#cf)"/>
  <path d="m103.94 123.22l3.6291 77.875-0.5193 32.99 4.3755 0.0124-3.0524-79.881-4.433-30.996z" fill="url(#bx)"/>
  <path d="m87.205 133.49l-2.9725 0.1321-2.3414 59.765 3.2143 40.357-5.3571 0.3571-1.7478-69.774 5.1711-32.428 4.0335 1.591z" fill="url(#cg)"/>
  <path d="m78.045 152.21s12.48 36.345 12.268 52.524c-0.1164 8.8549-2.9208 29.111-2.9208 29.111l4.8679 0.2576s1.8358-34.092 1.5882-50.33c-0.15971-10.472-15.803-31.563-15.803-31.563z" fill="url(#bs)"/>
  <path d="m104.45 103.26l-3.5714 93.644 3.2143 36.87-5.3571 0.3263-2.5054-89.585 8.2197-41.255z" fill="url(#ch)"/>
  <path d="m96.62 119.17l-4.329 74.216 3.2143 40.357-5.3572 0.3571-1.7478-69.774 8.2197-45.156z" fill="url(#bt)"/>
  <g transform="matrix(-1 0 0 1 361.33 -362.93)">
   <path d="m190.14 511.64c-1.6767 2.7475-6.8823 21.476-8.7361 21.156-1.8712 0.095093-2.0374-4.2367-2.2583-8.25-0.1875-3.406-0.40979-6.5866-1.7829-6.5938-1.7032-0.008911-8.6211 11.135-11.678 10.375-0.90656-0.22546-0.08139-6.6753-0.41602-8.5625l-3.7143 18.531-6.7452-16.156-6.0321 7.0938-4.368-4.125v70.375h106.44v-65.344l-4.368 3.8438-6.0321-6.5938-6.7452 15-3.7143-17.219c-0.3346 1.7521 0.49054 7.7594-0.41602 7.9688-3.0567 0.70581-9.9747-9.6333-11.678-9.625-1.3731 0.006714-1.5954 2.9315-1.7829 6.0938-0.22095 3.7261-0.38708 7.7758-2.2583 7.6875-1.8538 0.29651-7.0594-17.105-8.7361-19.656-1.6201 2.1484 1.5043 7.1016-1.0103 9.25l-2.3474-2.0938-4.6355-8.875-5.9726 5.6875c-2.5146-2.3141 0.6098-7.6547-1.0103-9.9687z" fill="url(#cx)"/>
   <path d="m156.97 531.33s-5.8085 26.747-6.0856 40.584c-0.1517 7.5732-3.8068 24.898-3.8068 24.898l6.3447 0.2203s2.3928-29.158 2.07-43.046c-0.20816-8.9559 1.4778-22.656 1.4778-22.656z" fill="url(#cy)"/>
   <path d="m165.06 506.55s3.7771 33.596 3.5355 53.801c-0.13223 11.059-3.318 36.356-3.318 36.356l5.53 0.3217s2.0856-42.577 1.8043-62.856c-0.18143-13.078-7.5517-27.622-7.5517-27.622z" fill="url(#cj)"/>
   <path d="m162.5 516.53s5.6315 35.737 3.5866 55.383c-0.78424 7.5341-3.8068 24.898-3.8068 24.898l6.3447 0.2203s2.3928-29.158 2.07-43.046c-0.20816-8.9559-8.1945-37.455-8.1945-37.455z" fill="url(#cz)"/>
   <path d="m152.92 486.15l-3.6291 77.875 0.5193 32.99-4.3755 0.0123 3.0524-79.881 4.433-30.996z" fill="url(#ck)"/>
   <path d="m158.85 518.93s-8.7268 32.557-8.4852 48.736c0.13223 8.8549 3.318 29.111 3.318 29.111l-5.53 0.2576s-2.0856-34.092-1.8043-50.33c0.18143-10.472 12.502-27.774 12.502-27.774z" fill="url(#da)"/>
   <path d="m160.05 496.24l-3.5682 0.3089 2.3414 59.765-3.2143 40.357 5.3571 0.3571 1.7478-69.774-4.9944-28.186 2.3305-2.8284z" fill="url(#db)"/>
   <path d="m175.87 515.14s-12.48 36.345-12.268 52.524c0.11639 8.8549 2.9208 29.111 2.9208 29.111l-4.8679 0.2576s-1.8358-34.092-1.5882-50.33c0.15973-10.472 15.803-31.563 15.803-31.563z" fill="url(#cl)"/>
   <path d="m148.32 453.82l-3.5714 102.5 3.2143 40.357-5.3572 0.3571-2.5054-98.058 8.2197-45.156z" fill="url(#dc)"/>
   <path d="m168.63 482.1l4.329 74.216-3.2143 40.357 5.3571 0.3571 1.7478-69.774-8.2197-45.156z" fill="url(#cm)"/>
   <path d="m148.48 522.84s6.9195 35.232 6.6423 49.069c-0.15167 7.5732-3.8068 24.898-3.8068 24.898l6.3447 0.2203s2.3928-29.158 2.07-43.046c-0.20813-8.9559-11.25-31.142-11.25-31.142z" fill="url(#by)"/>
   <path d="m158.03 522.84s6.9194 35.232 6.6423 49.069c-0.1517 7.5732-3.8068 24.898-3.8068 24.898l6.3447 0.2203s2.3928-29.158 2.07-43.046c-0.20819-8.9559-11.25-31.142-11.25-31.142z" fill="url(#by)"/>
   <path d="m191.77 531.33s-5.8084 26.747-6.0856 40.584c-0.15167 7.5732-3.8068 24.898-3.8068 24.898l6.3447 0.2203s2.3928-29.158 2.07-43.046c-0.20813-8.9559 1.4777-22.656 1.4777-22.656z" fill="url(#dd)"/>
   <path d="m195.39 506.55s3.7771 33.596 3.5355 53.801c-0.1322 11.059-3.318 36.356-3.318 36.356l5.5301 0.3217s2.0856-42.577 1.8043-62.856c-0.18146-13.078-7.5518-27.622-7.5518-27.622z" fill="url(#cj)"/>
   <path d="m187.34 526.08s5.4547 26.191 3.4098 45.836c-0.78424 7.5341-3.8068 24.898-3.8068 24.898l6.3447 0.2203s2.3928-29.158 2.07-43.046c-0.20816-8.9559-8.0177-27.909-8.0177-27.909z" fill="url(#de)"/>
   <path d="m178.43 486.15l-3.6291 77.875 0.5193 32.99-4.3755 0.0123 3.0524-79.881 4.433-30.996z" fill="url(#ck)"/>
   <path d="m187.31 518.93s-8.7268 32.557-8.4852 48.736c0.13223 8.8549 3.318 29.111 3.318 29.111l-5.53 0.2576s-2.0856-34.092-1.8043-50.33c0.18143-10.472 12.502-27.774 12.502-27.774z" fill="url(#df)"/>
   <path d="m193.67 496.42l2.9725 0.1321 2.3414 59.765-3.2143 40.357 5.3571 0.3571 1.7478-69.774-5.1711-32.428-4.0335 1.591z" fill="url(#dg)"/>
   <path d="m202.83 515.14s-12.48 36.345-12.268 52.524c0.11639 8.8549 2.9208 29.111 2.9208 29.111l-4.8679 0.2576s-1.8359-34.092-1.5882-50.33c0.1597-10.472 15.803-31.563 15.803-31.563z" fill="url(#cl)"/>
   <path d="m176.42 466.19l3.5714 93.644-3.2143 36.87 5.3571 0.3263 2.5054-89.585-8.2197-41.255z" fill="url(#dh)"/>
   <path d="m184.25 482.1l4.329 74.216-3.2143 40.357 5.3571 0.3571 1.7478-69.774-8.2197-45.156z" fill="url(#cm)"/>
   <path d="m189.43 522.84s6.9195 35.232 6.6423 49.069c-0.15173 7.5732-3.8068 24.898-3.8068 24.898l6.3447 0.2203s2.3928-29.158 2.07-43.046c-0.20816-8.9559-11.25-31.142-11.25-31.142z" fill="url(#by)"/>
   <path d="m192.38 522.84s6.9195 35.232 6.6423 49.069c-0.15173 7.5732-3.8068 24.898-3.8068 24.898l6.3447 0.2203s2.3928-29.158 2.07-43.046c-0.20813-8.9559-11.25-31.142-11.25-31.142z" fill="#4d9805"/>
   <path d="m215.79 531.33s5.8084 26.747 6.0856 40.584c0.1517 7.5732 3.8068 24.898 3.8068 24.898l-6.3447 0.2203s-2.3928-29.158-2.07-43.046c0.20813-8.9559-1.4778-22.656-1.4778-22.656z" fill="url(#cn)"/>
   <path d="m241.7 506.55s-3.7771 33.596-3.5355 53.801c0.1322 11.059 3.318 36.356 3.318 36.356l-5.5301 0.3217s-2.0856-42.577-1.8043-62.856c0.18146-13.078 7.5518-27.622 7.5518-27.622z" fill="url(#cp)"/>
   <path d="m210.26 516.53s-5.6315 35.737-3.5866 55.383c0.78424 7.5341 3.8068 24.898 3.8068 24.898l-6.3447 0.2203s-2.3928-29.158-2.07-43.046c0.20813-8.9559 8.1945-37.455 8.1945-37.455z" fill="url(#di)"/>
   <path d="m219.84 486.15l3.6291 77.875-0.5193 32.99 4.3755 0.0123-3.0524-79.881-4.433-30.996z" fill="url(#cq)"/>
   <path d="m213.91 518.93s8.7268 32.557 8.4852 48.736c-0.13223 8.8549-3.318 29.111-3.318 29.111l5.5301 0.2576s2.0856-34.092 1.8042-50.33c-0.1814-10.472-12.502-27.774-12.502-27.774z" fill="url(#dj)"/>
   <path d="m212.71 496.24l3.5682 0.3089-2.3414 59.765 3.2143 40.357-5.3572 0.3571-1.7478-69.774 4.9943-28.186-2.3304-2.8284z" fill="url(#dk)"/>
   <path d="m230.38 515.14s12.48 36.345 12.268 52.524c-0.11639 8.8549-2.9208 29.111-2.9208 29.111l4.8679 0.2576s1.8358-34.092 1.5882-50.33c-0.15967-10.472-15.803-31.563-15.803-31.563z" fill="url(#dl)"/>
   <path d="m209.94 453.82l3.5714 102.5-3.2143 40.357 5.3571 0.3571 2.5054-98.058-8.2197-45.156z" fill="url(#dm)"/>
   <path d="m252.62 482.1l-4.329 74.216 3.2143 40.357-5.3572 0.3571-1.7478-69.774 8.2197-45.156z" fill="url(#cr)"/>
   <path d="m224.27 522.84s-6.9194 35.232-6.6423 49.069c0.1517 7.5732 3.8068 24.898 3.8068 24.898l-6.3447 0.2203s-2.3928-29.158-2.07-43.046c0.20816-8.9559 11.25-31.142 11.25-31.142z" fill="url(#co)"/>
   <path d="m214.73 522.84s-6.9195 35.232-6.6423 49.069c0.15173 7.5732 3.8068 24.898 3.8068 24.898l-6.3447 0.2203s-2.3928-29.158-2.07-43.046c0.20813-8.9559 11.25-31.142 11.25-31.142z" fill="url(#co)"/>
   <path d="m229.48 531.33s5.8085 26.747 6.0856 40.584c0.1517 7.5732 3.8068 24.898 3.8068 24.898l-6.3447 0.2203s-2.3928-29.158-2.07-43.046c0.20816-8.9559-1.4778-22.656-1.4778-22.656z" fill="url(#cn)"/>
   <path d="m225.87 506.55s-3.777 33.596-3.5355 53.801c0.1322 11.059 3.318 36.356 3.318 36.356l-5.5301 0.3217s-2.0856-42.577-1.8042-62.856c0.18143-13.078 7.5517-27.622 7.5517-27.622z" fill="url(#cp)"/>
   <path d="m233.92 526.08s-5.4547 26.191-3.4098 45.836c0.78424 7.5341 3.8068 24.898 3.8068 24.898l-6.3447 0.2203s-2.3928-29.158-2.07-43.046c0.20816-8.9559 8.0177-27.909 8.0177-27.909z" fill="url(#dn)"/>
   <path d="m244.32 486.15l3.6292 77.875-0.5193 32.99 4.3755 0.0123-3.0524-79.881-4.433-30.996z" fill="url(#cq)"/>
   <path d="m227.59 496.42l-2.9725 0.1321-2.3414 59.765 3.2143 40.357-5.3571 0.3571-1.7478-69.774 5.1711-32.428 4.0335 1.591z" fill="url(#do)"/>
   <path d="m218.43 515.14s12.48 36.345 12.268 52.524c-0.11639 8.8549-2.9208 29.111-2.9208 29.111l4.8679 0.2576s1.8358-34.092 1.5882-50.33c-0.15973-10.472-15.803-31.563-15.803-31.563z" fill="url(#dp)"/>
   <path d="m244.83 466.19l-3.5715 93.644 3.2143 36.87-5.3571 0.3263-2.5054-89.585 8.2197-41.255z" fill="url(#dq)"/>
   <path d="m237.01 482.1l-4.329 74.216 3.2143 40.357-5.3572 0.3571-1.7478-69.774 8.2197-45.156z" fill="url(#cr)"/>
  </g>
  <path d="m265.26 148.71c-1.6767 2.7475-6.8824 21.476-8.7361 21.156-1.8712 0.095093-2.0374-4.2367-2.2583-8.25-0.18753-3.406-0.40979-6.5866-1.7829-6.5938-1.7032-0.008972-8.6211 11.135-11.678 10.375-0.90654-0.22546-0.08139-6.6754-0.416-8.5625l-3.7143 18.531-6.7452-16.156-6.0321 7.0938-4.368-4.125v70.375h106.44v-65.344l-4.368 3.8438-6.0321-6.5938-6.7452 15-3.7143-17.219c-0.3346 1.7521 0.49054 7.7594-0.41598 7.9688-3.0567 0.70575-9.9747-9.6333-11.678-9.625-1.3731 0.006714-1.5953 2.9315-1.7829 6.0938-0.22092 3.726-0.38705 7.7758-2.2583 7.6875-1.8537 0.29651-7.0594-17.105-8.736-19.656-1.6201 2.1484 1.5043 7.1016-1.0103 9.25l-2.3474-2.0938-4.6355-8.875-5.9726 5.6875c-2.5146-2.3141 0.6098-7.6547-1.0103-9.9688z" fill="url(#cs)"/>
  <path d="m232.08 168.4s-5.8084 26.747-6.0856 40.584c-0.1517 7.5733-3.8068 24.898-3.8068 24.898l6.3447 0.2203s2.3928-29.158 2.07-43.046c-0.20814-8.9559 1.4777-22.656 1.4777-22.656z" fill="url(#bm)"/>
  <path d="m240.17 143.62s3.777 33.596 3.5355 53.801c-0.13222 11.059-3.318 36.356-3.318 36.356l5.5301 0.3217s2.0856-42.577 1.8042-62.856c-0.18143-13.078-7.5517-27.622-7.5517-27.622z" fill="url(#bn)"/>
  <path d="m237.61 153.6s5.6315 35.737 3.5866 55.382c-0.78424 7.5341-3.8068 24.898-3.8068 24.898l6.3447 0.2203s2.3928-29.158 2.07-43.046c-0.20816-8.9559-8.1945-37.455-8.1945-37.455z" fill="url(#dr)"/>
  <path d="m228.03 123.22l-3.6291 77.875 0.5193 32.99-4.3755 0.0124 3.0524-79.881 4.433-30.996z" fill="url(#bo)"/>
  <path d="m233.96 156s-8.7268 32.557-8.4852 48.736c0.13222 8.8549 3.318 29.111 3.318 29.111l-5.5301 0.2576s-2.0856-34.092-1.8042-50.33c0.18143-10.472 12.502-27.774 12.502-27.774z" fill="url(#bp)"/>
  <path d="m235.16 133.31l-3.5682 0.3089 2.3414 59.765-3.2143 40.357 5.3571 0.3571 1.7478-69.774-4.9943-28.186 2.3305-2.8284z" fill="url(#ct)"/>
  <path d="m250.99 152.21s-12.48 36.345-12.268 52.524c0.11639 8.8549 2.9208 29.111 2.9208 29.111l-4.8679 0.2576s-1.8358-34.092-1.5882-50.33c0.15971-10.472 15.803-31.563 15.803-31.563z" fill="url(#bq)"/>
  <path d="m223.43 90.886l-3.5714 102.5 3.2143 40.357-5.3571 0.3571-2.5054-98.058 8.2197-45.156z" fill="url(#cu)"/>
  <path d="m243.75 119.17l4.329 74.216-3.2143 40.357 5.3571 0.3571 1.7478-69.774-8.2197-45.156z" fill="url(#br)"/>
  <path d="m223.6 159.91s6.9195 35.232 6.6423 49.069c-0.1517 7.5733-3.8068 24.898-3.8068 24.898l6.3447 0.2203s2.3928-29.158 2.07-43.046c-0.20814-8.9559-11.25-31.142-11.25-31.142z" fill="url(#c)"/>
  <path d="m233.14 159.91s6.9195 35.232 6.6423 49.069c-0.1517 7.5733-3.8068 24.898-3.8068 24.898l6.3447 0.2203s2.3928-29.158 2.07-43.046c-0.20816-8.9559-11.25-31.142-11.25-31.142z" fill="url(#c)"/>
  <path d="m266.89 168.4s-5.8085 26.747-6.0856 40.584c-0.1517 7.5733-3.8068 24.898-3.8068 24.898l6.3447 0.2203s2.3928-29.158 2.07-43.046c-0.20816-8.9559 1.4777-22.656 1.4777-22.656z" fill="url(#bm)"/>
  <path d="m270.5 143.62s3.777 33.596 3.5355 53.801c-0.1322 11.059-3.318 36.356-3.318 36.356l5.5301 0.3217s2.0856-42.577 1.8042-62.856c-0.18143-13.078-7.5517-27.622-7.5517-27.622z" fill="url(#bn)"/>
  <path d="m262.45 163.15s5.4547 26.191 3.4098 45.836c-0.78424 7.5341-3.8068 24.898-3.8068 24.898l6.3447 0.2203s2.3928-29.158 2.07-43.046c-0.20816-8.9559-8.0177-27.909-8.0177-27.909z" fill="url(#cv)"/>
  <path d="m253.55 123.22l-3.6292 77.875 0.5193 32.99-4.3755 0.0124 3.0524-79.881 4.433-30.996z" fill="url(#bo)"/>
  <path d="m262.42 156s-8.7268 32.557-8.4852 48.736c0.13223 8.8549 3.318 29.111 3.318 29.111l-5.5301 0.2576s-2.0856-34.092-1.8043-50.33c0.18143-10.472 12.502-27.774 12.502-27.774z" fill="url(#bp)"/>
  <path d="m268.78 133.49l2.9725 0.1321 2.3414 59.765-3.2143 40.357 5.3572 0.3571 1.7478-69.774-5.1711-32.428-4.0335 1.591z" fill="url(#bz)"/>
  <path d="m277.94 152.21s-12.48 36.345-12.268 52.524c0.11639 8.8549 2.9208 29.111 2.9208 29.111l-4.8679 0.2576s-1.8358-34.092-1.5882-50.33c0.15973-10.472 15.803-31.563 15.803-31.563z" fill="url(#bq)"/>
  <path d="m251.54 103.26l3.5714 93.644-3.2143 36.87 5.3571 0.3263 2.5054-89.585-8.2197-41.255z" fill="url(#ca)"/>
  <path d="m259.36 119.17l4.329 74.216-3.2143 40.357 5.3571 0.3571 1.7478-69.774-8.2197-45.156z" fill="url(#br)"/>
  <path d="m264.55 159.91s6.9195 35.232 6.6423 49.069c-0.1517 7.5733-3.8068 24.898-3.8068 24.898l6.3447 0.2203s2.3928-29.158 2.07-43.046c-0.20813-8.9559-11.25-31.142-11.25-31.142z" fill="url(#c)"/>
  <path d="m267.49 159.91s6.9195 35.232 6.6423 49.069c-0.1517 7.5733-3.8068 24.898-3.8068 24.898l6.3447 0.2203s2.3928-29.158 2.07-43.046c-0.20813-8.9559-11.25-31.142-11.25-31.142z" fill="#4d9805"/>
  <path d="m290.9 168.4s5.8085 26.747 6.0856 40.584c0.15173 7.5733 3.8068 24.898 3.8068 24.898l-6.3447 0.2203s-2.3928-29.158-2.07-43.046c0.20816-8.9559-1.4778-22.656-1.4778-22.656z" fill="url(#bv)"/>
  <path d="m316.81 143.62s-3.7771 33.596-3.5355 53.801c0.13223 11.059 3.318 36.356 3.318 36.356l-5.53 0.3217s-2.0856-42.577-1.8043-62.856c0.18143-13.078 7.5518-27.622 7.5518-27.622z" fill="url(#bw)"/>
  <path d="m285.37 153.6s-5.6315 35.737-3.5866 55.382c0.78424 7.5341 3.8068 24.898 3.8068 24.898l-6.3447 0.2203s-2.3928-29.158-2.07-43.046c0.20813-8.9559 8.1945-37.455 8.1945-37.455z" fill="url(#cb)"/>
  <path d="m294.95 123.22l3.6291 77.875-0.5193 32.99 4.3755 0.0124-3.0524-79.881-4.433-30.996z" fill="url(#bx)"/>
  <path d="m289.02 156s8.7268 32.557 8.4852 48.736c-0.13223 8.8549-3.318 29.111-3.318 29.111l5.53 0.2576s2.0856-34.092 1.8043-50.33c-0.18143-10.472-12.502-27.774-12.502-27.774z" fill="url(#cc)"/>
  <path d="m287.82 133.31l3.5682 0.3089-2.3414 59.765 3.2143 40.357-5.3571 0.3571-1.7478-69.774 4.9943-28.186-2.3304-2.8284z" fill="url(#cd)"/>
  <path d="m305.5 152.21s12.48 36.345 12.268 52.524c-0.11639 8.8549-2.9208 29.111-2.9208 29.111l4.8679 0.2576s1.8358-34.092 1.5882-50.33c-0.1597-10.472-15.803-31.563-15.803-31.563z" fill="url(#bs)"/>
  <path d="m285.05 90.886l3.5714 102.5-3.2143 40.357 5.3572 0.3571 2.5054-98.058-8.2197-45.156z" fill="url(#ce)"/>
  <path d="m327.74 119.17l-4.329 74.216 3.2143 40.357-5.3572 0.3571-1.7478-69.774 8.2197-45.156z" fill="url(#bt)"/>
  <path d="m299.39 159.91s-6.9195 35.232-6.6423 49.069c0.15167 7.5733 3.8068 24.898 3.8068 24.898l-6.3447 0.2203s-2.3928-29.158-2.07-43.046c0.20816-8.9559 11.25-31.142 11.25-31.142z" fill="url(#bu)"/>
  <path d="m289.84 159.91s-6.9195 35.232-6.6423 49.069c0.1517 7.5733 3.8068 24.898 3.8068 24.898l-6.3447 0.2203s-2.3928-29.158-2.07-43.046c0.20816-8.9559 11.25-31.142 11.25-31.142z" fill="url(#bu)"/>
  <path d="m304.6 168.4s5.8084 26.747 6.0856 40.584c0.15167 7.5733 3.8068 24.898 3.8068 24.898l-6.3447 0.2203s-2.3928-29.158-2.07-43.046c0.20816-8.9559-1.4777-22.656-1.4777-22.656z" fill="url(#bv)"/>
  <path d="m300.98 143.62s-3.7771 33.596-3.5355 53.801c0.1322 11.059 3.318 36.356 3.318 36.356l-5.5301 0.3217s-2.0856-42.577-1.8043-62.856c0.18146-13.078 7.5518-27.622 7.5518-27.622z" fill="url(#bw)"/>
  <path d="m309.03 163.15s-5.4547 26.191-3.4098 45.836c0.78424 7.5341 3.8068 24.898 3.8068 24.898l-6.3447 0.2203s-2.3928-29.158-2.07-43.046c0.20816-8.9559 8.0177-27.909 8.0177-27.909z" fill="url(#cf)"/>
  <path d="m319.44 123.22l3.6291 77.875-0.5193 32.99 4.3755 0.0124-3.0524-79.881-4.433-30.996z" fill="url(#bx)"/>
  <path d="m302.7 133.49l-2.9725 0.1321-2.3414 59.765 3.2143 40.357-5.3572 0.3571-1.7478-69.774 5.1711-32.428 4.0335 1.591z" fill="url(#cg)"/>
  <path d="m293.54 152.21s12.48 36.345 12.268 52.524c-0.11639 8.8549-2.9208 29.111-2.9208 29.111l4.8679 0.2576s1.8359-34.092 1.5882-50.33c-0.1597-10.472-15.803-31.563-15.803-31.563z" fill="url(#bs)"/>
  <path d="m319.95 103.26l-3.5714 93.644 3.2143 36.87-5.3571 0.3263-2.5054-89.585 8.2197-41.255z" fill="url(#ch)"/>
  <path d="m312.12 119.17l-4.329 74.216 3.2143 40.357-5.3571 0.3571-1.7478-69.774 8.2197-45.156z" fill="url(#bt)"/>
  <rect x=".80711" y="212.22" width="327" height="22.5" fill="url(#ds)"/>
 </g>
</svg>
